<svg width="200" height="204" viewBox="0 0 200 204" fill="none" xmlns="http://www.w3.org/2000/svg">
<g filter="url(#filter0_d_184_6)">
<path d="M40.7395 84.4094C36.1539 78.6074 39.7949 70.0296 47.154 69.2978V69.2978C52.6129 68.755 56.4356 63.6537 55.4238 58.262V58.262C54.0597 50.9935 61.27 45.0903 68.1262 47.8623V47.8623C73.212 49.9186 78.9677 47.178 80.5773 41.9337V41.9337C82.7473 34.8638 91.8751 32.9876 96.6577 38.6284V38.6284C100.205 42.8126 106.575 43.0607 110.438 39.1651V39.1651C115.645 33.9135 124.599 36.4941 126.212 43.7114V43.7114C127.409 49.065 132.934 52.245 138.165 50.5906V50.5906C145.216 48.3603 151.945 54.8065 150.02 61.9469V61.9469C148.591 67.2435 152.006 72.6268 157.406 73.5926V73.5926C164.686 74.8946 167.648 83.7296 162.625 89.1573V89.1573C158.899 93.1835 159.421 99.5369 163.753 102.902V102.902C169.594 107.438 168.112 116.638 161.142 119.109V119.109C155.971 120.943 153.481 126.811 155.753 131.803V131.803C158.817 138.534 153.229 145.991 145.909 144.941V144.941C140.479 144.161 135.546 148.2 135.238 153.677V153.677C134.823 161.061 126.41 165.067 120.416 160.734V160.734C115.97 157.521 109.726 158.804 106.908 163.511V163.511C103.109 169.856 93.7977 169.493 90.5039 162.872V162.872C88.0606 157.96 81.9352 156.195 77.2527 159.053V159.053C70.9403 162.906 62.8639 158.258 63.0245 150.864V150.864C63.1437 145.379 58.5403 140.97 53.0659 141.324V141.324C45.686 141.802 40.695 133.933 44.2732 127.461V127.461C46.9275 122.66 44.9007 116.616 39.8886 114.386V114.386C33.1319 111.38 32.3696 102.092 38.5457 98.0243V98.0243C43.127 95.0068 44.1411 88.7133 40.7395 84.4094V84.4094Z" fill="url(#paint0_linear_184_6)"/>
</g>
<defs>
<filter id="filter0_d_184_6" x="8.2011" y="26.0951" width="177.62" height="177.324" filterUnits="userSpaceOnUse" color-interpolation-filters="sRGB">
<feFlood flood-opacity="0" result="BackgroundImageFix"/>
<feColorMatrix in="SourceAlpha" type="matrix" values="0 0 0 0 0 0 0 0 0 0 0 0 0 0 0 0 0 0 127 0" result="hardAlpha"/>
<feOffset dx="-3.84326" dy="13.0671"/>
<feGaussianBlur stdDeviation="11.1454"/>
<feComposite in2="hardAlpha" operator="out"/>
<feColorMatrix type="matrix" values="0 0 0 0 0.0775104 0 0 0 0 0.241623 0 0 0 0 0.157958 0 0 0 0.46 0"/>
<feBlend mode="normal" in2="BackgroundImageFix" result="effect1_dropShadow_184_6"/>
<feBlend mode="normal" in="SourceGraphic" in2="effect1_dropShadow_184_6" result="shape"/>
</filter>
<linearGradient id="paint0_linear_184_6" x1="151.563" y1="39.3638" x2="111.351" y2="148.772" gradientUnits="userSpaceOnUse">
<stop stop-color="#237249"/>
<stop offset="1" stop-color="#35C66B"/>
</linearGradient>
</defs>
</svg>
